<?xml version="1.0" encoding="UTF-8" standalone="no"?>
<svg
   xmlns:dc="http://purl.org/dc/elements/1.1/"
   xmlns:cc="http://creativecommons.org/ns#"
   xmlns:rdf="http://www.w3.org/1999/02/22-rdf-syntax-ns#"
   xmlns:svg="http://www.w3.org/2000/svg"
   xmlns="http://www.w3.org/2000/svg"
   xmlns:sodipodi="http://sodipodi.sourceforge.net/DTD/sodipodi-0.dtd"
   xmlns:inkscape="http://www.inkscape.org/namespaces/inkscape"
   viewBox="0 0 465 72"
   version="1.1"
   id="svg6"
   sodipodi:docname="logo-echoraeume-plus-text.svg"
   width="465"
   height="72"
   inkscape:version="0.92.4 (5da689c313, 2019-01-14)">
  <metadata
     id="metadata12">
    <rdf:RDF>
      <cc:Work
         rdf:about="">
        <dc:format>image/svg+xml</dc:format>
        <dc:type
           rdf:resource="http://purl.org/dc/dcmitype/StillImage" />
        <dc:title>logo</dc:title>
      </cc:Work>
    </rdf:RDF>
  </metadata>
  <defs
     id="defs10" />
  <sodipodi:namedview
     pagecolor="#ff0000"
     bordercolor="#666666"
     borderopacity="1"
     objecttolerance="10"
     gridtolerance="10"
     guidetolerance="10"
     inkscape:pageopacity="0"
     inkscape:pageshadow="2"
     inkscape:window-width="1920"
     inkscape:window-height="1028"
     id="namedview8"
     showgrid="false"
     inkscape:zoom="0.83742945"
     inkscape:cx="494.37"
     inkscape:cy="73.714345"
     inkscape:window-x="1920"
     inkscape:window-y="31"
     inkscape:window-maximized="1"
     inkscape:current-layer="svg6" />
  <title
     id="title2">logo</title>
  <path
     d="m 168.65488,0.05 h -42.16033 v 17.92548 l 2.23108,2.23109 V 2.281088 h 37.70268 V 39.98376 h -28.97253 v 2.23109 h 29.62289 L 194.66015,69.8144 H 157.23297 L 137.4603,50.0372 v 3.16146 L 156.31163,72.05 h 42.16485 v -42.18743 0 z m 0,3.16146 26.64659,26.6466 h -26.64659 z m 27.58148,65.03575 -27.58148,-27.58148 v -8.57207 h 27.58148 z M 105.41212,0.05 H 63.247273 v 17.92548 l 2.231088,2.23109 V 3.875367 L 93.059845,31.42524 v 8.31012 H 74.213024 v 2.23109 H 93.064361 V 68.85693 L 74.213024,50.00559 v 3.16146 L 93.064361,72.01839 H 135.22921 V 29.86257 Z M 67.059091,2.281088 H 104.49078 L 132.07227,29.86257 H 94.640575 Z M 132.99361,69.8144 H 95.290933 V 32.09366 H 132.99361 Z M 42.164849,0.05 H 0 V 42.21485 L 29.808055,72.0229 H 71.981937 V 29.86257 Z M 69.746333,30.78843 V 68.22012 L 42.164849,40.63412 V 3.206944 Z M 32.043659,42.21485 h 8.54046 l 27.586,27.59955 H 32.039143 Z M 2.2356041,2.281088 H 39.938277 V 39.98376 H 2.2310878 Z M 29.817088,42.21485 V 68.86144 L 3.1704931,42.21485 Z"
     id="path4"
     inkscape:connector-curvature="0"
     style="fill:#ffffff;stroke-width:0.45163721" />
  <path
     inkscape:connector-curvature="0"
     style="fill:#ffffff;stroke-width:0.64680153"
     d="m 227.70551,47.702329 c 0.0453,4.15247 3.00763,7.48997 7.34767,7.48997 3.234,0 5.34258,-1.94042 6.82375,-4.63111 l 3.23401,1.8628 a 11.319027,11.319027 0 0 1 -10.34882,6.29984 c -6.68146,0 -10.99563,-5.10326 -10.99563,-11.54541 0,-6.62972 3.88081,-12.12106 10.8792,-12.12106 7.20537,0 10.99563,5.96351 10.63989,12.64497 z m 13.58283,-3.23401 a 6.8431605,6.8431605 0 0 0 -6.56503,-5.89883 7.1148171,7.1148171 0 0 0 -6.82375,5.86649 z m 25.91088,-2.1021 h -0.097 c -1.76577,-2.2444 -3.95843,-3.77086 -6.96605,-3.77086 -4.63111,0 -7.92332,3.81613 -7.92332,8.30493 0,4.48881 3.0529,8.30494 7.76161,8.30494 3.1952,0 5.43961,-1.42943 7.30239,-3.88081 h 0.097 v 5.10326 a 12.28923,12.28923 0 0 1 -7.11481,2.28968 c -6.77849,0 -11.92703,-5.05799 -11.92703,-11.83647 a 11.830001,11.830001 0 0 1 11.97877,-11.83647 12.082254,12.082254 0 0 1 6.92078,2.2444 z m 9.87665,-23.6212 v 19.56575 l 0.097,0.097 a 7.5223021,7.5223021 0 0 1 6.39686,-3.3375 c 6.20283,0 7.63226,4.4888 7.63226,9.73436 v 13.29824 h -3.81613 v -12.64497 c 0,-3.62856 -0.28459,-6.86903 -4.72165,-6.86903 -5.25203,0 -5.5819,4.86395 -5.5819,8.87411 v 10.63989 h -3.81613 v -39.36432 z m 19.40405,28.20055 a 11.784725,11.784725 0 1 1 11.78472,11.78473 11.771789,11.771789 0 0 1 -11.80412,-11.79119 z m 3.81613,-0.0453 c 0,4.57937 3.23401,8.30494 7.96859,8.30494 4.73459,0 7.9686,-3.71911 7.9686,-8.30494 0,-4.58582 -3.23401,-8.30493 -7.9686,-8.30493 -4.73458,0 -7.97506,3.75792 -7.97506,8.292 z m 28.62745,-8.77709 h 0.097 c 1.33889,-1.76577 2.48372,-3.0529 4.96097,-3.0529 a 6.7526083,6.7526083 0 0 1 3.43451,1.04781 l -1.81104,3.48627 c -0.76322,-0.52391 -1.29359,-1.00255 -2.28967,-1.00255 -4.19775,0 -4.39178,5.39433 -4.39178,8.30493 v 11.19614 h -3.81613 v -22.42459 h 3.81613 z m 29.68171,9.59207 c 0.0453,4.15246 3.00763,7.48996 7.34768,7.48996 3.234,0 5.34257,-1.9404 6.82375,-4.6311 l 3.23401,1.86279 a 11.319027,11.319027 0 0 1 -10.34883,6.29984 10.219465,10.219465 0 0 1 -8.58952,-4.43705 c -1.86279,3.234 -4.72165,4.43705 -8.40843,4.43705 -4.48879,0 -9.63733,-2.00507 -9.63733,-7.20536 0,-5.20028 4.86394,-7.44469 9.35275,-7.44469 a 10.516993,10.516993 0 0 1 6.39686,1.9404 c -0.0453,-4.43705 -1.57173,-7.39941 -6.46802,-7.39941 a 21.557896,21.557896 0 0 0 -6.86903,1.42943 v -3.62855 a 24.332674,24.332674 0 0 1 7.11482,-1.33888 c 3.3375,0 6.86904,1.42943 8.30494,4.63111 1.76576,-2.95589 5.34257,-4.63111 8.68654,-4.63111 7.20536,0 10.99562,5.96352 10.69163,12.64497 z m -15.74961,3.7191 c 0,2.91062 3.1952,3.77086 5.63364,3.77086 2.43844,0 6.06053,-0.86024 6.06053,-3.95842 0,-2.91062 -3.77085,-3.77086 -6.01525,-3.77086 -2.39964,-0.0129 -5.69185,1.08662 -5.69185,3.94549 z m 29.53942,-6.96605 a 6.8431605,6.8431605 0 0 0 -6.59737,-5.89883 7.1148171,7.1148171 0 0 0 -6.82376,5.8665 z m 12.62558,3.71264 c 0,3.77086 0.42688,7.0178 5.05798,7.0178 4.6311,0 5.05799,-3.234 5.05799,-7.0178 v -12.50265 h 3.81613 v 12.93603 c 0,5.96352 -2.24441,10.11598 -8.87412,10.11598 -6.62971,0 -8.87412,-4.15246 -8.87412,-10.11598 v -12.93603 h 3.81614 z m 24.71428,-10.0707 h 0.097 a 6.3321873,6.3321873 0 0 1 5.39433,-3.05289 6.8755005,6.8755005 0 0 1 6.20283,3.7191 7.470558,7.470558 0 0 1 6.72673,-3.7191 c 5.7242,0 7.1601,4.67637 7.1601,9.39802 v 13.64751 h -3.81613 v -13.02658 c 0,-2.91061 -0.18758,-6.46802 -4.10072,-6.46802 -4.39179,0 -4.87042,4.24949 -4.87042,7.63226 v 11.86234 h -3.81613 v -12.74199 c 0,-2.76832 -0.33634,-6.77848 -4.01017,-6.77848 -4.48234,0 -4.96097,4.52761 -4.96097,7.92332 v 11.59715 h -3.81613 v -22.42459 h 3.81613 z m 34.73971,9.59207 c 0.0453,4.15247 3.00763,7.48997 7.34766,7.48997 3.23401,0 5.34258,-1.94042 6.82376,-4.63111 l 3.23401,1.8628 a 11.319027,11.319027 0 0 1 -10.34882,6.29984 c -6.68146,0 -10.99563,-5.10326 -10.99563,-11.54541 0,-6.62972 3.88081,-12.12105 10.8792,-12.12105 7.20537,0 10.99562,5.9635 10.63988,12.64496 z m 13.58283,-3.23401 a 6.8431605,6.8431605 0 0 0 -6.56503,-5.89883 7.1148171,7.1148171 0 0 0 -6.82375,5.8665 z"
     id="path874" />
</svg>
