<svg xmlns="http://www.w3.org/2000/svg" viewBox="0 0 439.44 159.37"><title>logo</title><path d="M575.65,217.53H482.3v39.69l4.94,4.94V222.47h83.48v83.48H506.57v4.94h65.59L633.23,372H550.36l-43.78-43.79v7l41.74,41.74h93.36V283.54h0Zm0,7,59,59h-59Zm61.07,144-61.07-61.07V288.48h61.07ZM435.62,217.53H342.26v39.69l4.94,4.94V226L408.27,287v18.4H366.54v4.94h41.74v59.54l-41.74-41.74v7l41.74,41.74h93.36V283.54Zm-84.92,4.94h82.88l61.07,61.07H411.77ZM496.69,372H413.21V288.48h83.48ZM295.58,217.53H202.22v93.36l66,66H361.6V283.54Zm61.07,68.06v82.88l-61.07-61.08V224.52Zm-83.48,25.3h18.91L353.16,372h-80Zm-66-88.42h83.48v83.48H207.16Zm61.07,88.42v59l-59-59Z" transform="translate(-202.22 -217.53)" fill="#fff"/></svg>