<svg xmlns="http://www.w3.org/2000/svg" viewBox="0 0 368.45 61.82"><title>logo-text</title><path d="M242.78,311.12c.07,6.42,4.65,11.58,11.36,11.58,5,0,8.26-3,10.55-7.16l5,2.88a17.5,17.5,0,0,1-16,9.74c-10.33,0-17-7.89-17-17.85,0-10.25,6-18.74,16.82-18.74,11.14,0,17,9.22,16.45,19.55Zm21-5A10.58,10.58,0,0,0,253.63,297a11,11,0,0,0-10.55,9.07Zm40.06-3.25h-.15c-2.73-3.47-6.12-5.83-10.77-5.83-7.16,0-12.25,5.9-12.25,12.84s4.72,12.84,12,12.84c4.94,0,8.41-2.21,11.29-6h.15v7.89a19,19,0,0,1-11,3.54c-10.48,0-18.44-7.82-18.44-18.3a18.29,18.29,0,0,1,18.52-18.3,18.68,18.68,0,0,1,10.7,3.47Zm15.27-36.52v30.25l.15.15a11.63,11.63,0,0,1,9.89-5.16c9.59,0,11.8,6.94,11.8,15.05V327.2h-5.9V307.65c0-5.61-.44-10.62-7.3-10.62-8.12,0-8.63,7.52-8.63,13.72V327.2h-5.9V266.34Zm30,43.6a18.22,18.22,0,1,1,18.22,18.22A18.2,18.2,0,0,1,349.08,309.94Zm5.9-.07c0,7.08,5,12.84,12.32,12.84s12.32-5.75,12.32-12.84-5-12.84-12.32-12.84S355,302.85,355,309.86Zm44.26-13.57h.15c2.07-2.73,3.84-4.72,7.67-4.72a10.44,10.44,0,0,1,5.31,1.62l-2.8,5.39c-1.18-.81-2-1.55-3.54-1.55-6.49,0-6.79,8.34-6.79,12.84V327.2h-5.9V292.53h5.9Zm45.89,14.83c.07,6.42,4.65,11.58,11.36,11.58,5,0,8.26-3,10.55-7.16l5,2.88a17.5,17.5,0,0,1-16,9.74,15.8,15.8,0,0,1-13.28-6.86c-2.88,5-7.3,6.86-13,6.86-6.94,0-14.9-3.1-14.9-11.14s7.52-11.51,14.46-11.51a16.26,16.26,0,0,1,9.89,3c-.07-6.86-2.43-11.44-10-11.44a33.33,33.33,0,0,0-10.62,2.21v-5.61a37.62,37.62,0,0,1,11-2.07c5.16,0,10.62,2.21,12.84,7.16,2.73-4.57,8.26-7.16,13.43-7.16,11.14,0,17,9.22,16.53,19.55Zm-24.35,5.75c0,4.5,4.94,5.83,8.71,5.83s9.37-1.33,9.37-6.12c0-4.5-5.83-5.83-9.3-5.83C425.88,310.75,420.79,312.45,420.79,316.87Zm45.67-10.77A10.58,10.58,0,0,0,456.28,297a11,11,0,0,0-10.55,9.07ZM486,311.86c0,5.83.66,10.85,7.82,10.85s7.82-5,7.82-10.85V292.53h5.9v20c0,9.22-3.47,15.64-13.72,15.64s-13.72-6.42-13.72-15.64v-20H486Zm38.21-15.57h.15a9.79,9.79,0,0,1,8.34-4.72,10.63,10.63,0,0,1,9.59,5.75,11.55,11.55,0,0,1,10.4-5.75c8.85,0,11.07,7.23,11.07,14.53v21.1h-5.9V307.06c0-4.5-.29-10-6.34-10-6.79,0-7.53,6.57-7.53,11.8V327.2h-5.9V307.5c0-4.28-.52-10.48-6.2-10.48-6.93,0-7.67,7-7.67,12.25V327.2h-5.9V292.53h5.9Zm53.71,14.83c.07,6.42,4.65,11.58,11.36,11.58,5,0,8.26-3,10.55-7.16l5,2.88a17.5,17.5,0,0,1-16,9.74c-10.33,0-17-7.89-17-17.85,0-10.25,6-18.74,16.82-18.74,11.14,0,17,9.22,16.45,19.55Zm21-5A10.58,10.58,0,0,0,588.77,297a11,11,0,0,0-10.55,9.07Z" transform="translate(-236.73 -266.34)" fill="#fff"/></svg>